<?xml version="1.0" encoding="UTF-8" standalone="no"?>
<!DOCTYPE svg PUBLIC "-//W3C//DTD SVG 1.1//EN" "http://www.w3.org/Graphics/SVG/1.1/DTD/svg11.dtd">
<svg width="150" height="150" viewBox="0 0 450 450" version="1.1" xmlns="http://www.w3.org/2000/svg" xmlns:xlink="http://www.w3.org/1999/xlink" xml:space="preserve" xmlns:serif="http://www.serif.com/" style="fill-rule:evenodd;clip-rule:evenodd;stroke-linejoin:round;stroke-miterlimit:1.41421;">
    <circle cx="225" cy="225" r="225" style="fill:rgb(235,235,235);"/>
    <g>
        <g id="body">
            <path d="M84.944,400.976c7.836,-24.806 27.146,-52.086 73.619,-57.363l37.973,0l0,-17.493c0,0 26.712,11.473 53.76,1.28l0.853,16.213l44.374,0c0.999,0.105 52.306,5.72 68.136,58.461c-25.254,19.862 -54.862,34.409 -87.168,41.926c0,0 -35.633,6 -52.797,6c-16.847,0 -50.185,-6 -50.185,-6c-32.892,-7.692 -63.012,-22.614 -88.565,-43.024Z" style="fill:white;"/>
            <path d="M196.536,345.747l-34.983,0c-33.502,0 -63.457,23.764 -73.758,57.539c-1.635,-1.26 -3.251,-2.542 -4.85,-3.846c11.078,-34.349 41.794,-58.387 76.093,-58.387l37.498,0l0,4.694Zm165.874,57.381c-10.347,-33.691 -40.26,-57.381 -73.709,-57.381l-35.418,0l0,-4.694l37.679,0c34.299,0 65.015,24.038 76.093,58.387c-1.532,1.25 -3.08,2.479 -4.645,3.688Z"/>
            <path id="neck-copy-7" serif:id="neck copy 7" d="M199.523,324.146l0,26.315c0,13.656 11.079,24.726 24.746,24.726c13.668,0 24.747,-11.07 24.747,-24.726l0,-25.772c1.436,-0.437 2.859,-0.912 4.267,-1.425l0,27.376c0,16.149 -13.085,29.24 -29.227,29.24c-16.141,0 -29.227,-13.091 -29.227,-29.24l0,-28.186c1.546,0.611 3.112,1.173 4.694,1.692Z" style="fill:rgb(59,67,79);fill-rule:nonzero;"/>
            <path id="Rounded-Rectangle-2" serif:id="Rounded Rectangle 2" d="M300.843,397.489l-12.086,25.207c-0.611,1.275 -2.14,1.813 -3.415,1.202c-1.275,-0.611 -1.813,-2.14 -1.201,-3.415l11.672,-24.345l-9.121,-15.797c-0.706,-1.224 -0.287,-2.79 0.937,-3.497c1.225,-0.707 2.791,-0.287 3.497,0.937l9.814,16.998c0.506,0.875 0.432,1.924 -0.097,2.71Z" style="fill:rgb(59,67,79);fill-rule:nonzero;"/>
            <path id="Rounded-Rectangle-2-copy-3" serif:id="Rounded Rectangle 2 copy 3" d="M147.485,397.514l12.15,25.284c0.615,1.279 2.152,1.819 3.434,1.206c1.282,-0.613 1.822,-2.147 1.208,-3.426l-11.735,-24.42l9.169,-15.845c0.711,-1.228 0.289,-2.798 -0.942,-3.508c-1.231,-0.709 -2.805,-0.288 -3.515,0.94l-9.866,17.05c-0.509,0.878 -0.435,1.931 0.097,2.719Z" style="fill:rgb(59,67,79);fill-rule:nonzero;"/>
            <rect id="Rectangle-24" serif:id="Rectangle 24" x="194.829" y="340.2" width="4.693" height="103.68" style="fill:rgb(59,67,79);fill-rule:nonzero;"/>
            <rect id="Rectangle-24-copy" serif:id="Rectangle 24 copy" x="249.016" y="341.053" width="4.693" height="103.68" style="fill:rgb(59,67,79);fill-rule:nonzero;"/>
            <path id="Shape-34" serif:id="Shape 34" d="M212.123,391l12,-13l13,13l-7,7l11,45l-34,0l12,-45l-7,-7Z" style="fill:rgb(59,67,79);fill-rule:nonzero;"/>
            <path id="Rectangle-24-copy-4" serif:id="Rectangle 24 copy 4" d="M238.822,443.69l-12.094,-45.136l2.515,-0.754l1.667,-1.772l12.791,47.738l-4.879,-0.076Zm-34.114,-0.533l12.626,-46.909l0.815,0.699l2.56,1.706l0.845,0.085l-11.977,44.495l-4.869,-0.076Z" style="fill:rgb(59,67,79);"/>
            <path id="Ellipse-6" serif:id="Ellipse 6" d="M253.268,403.788l-3.318,3.318l-12.914,-12.913c-2.492,3.958 -6.891,6.594 -11.913,6.594c-5.226,0 -9.776,-2.853 -12.205,-7.08l-13.48,13.479l-3.327,-3.327l26.538,-26.539l2.076,-1.924l2.076,1.924l26.467,26.468Zm-37.74,-12.692c1.702,3.465 5.261,5.851 9.381,5.851c4.028,0 7.515,-2.284 9.259,-5.622l-9.434,-9.434l-9.206,9.205Z" style="fill:rgb(59,67,79);"/>
        </g>
        <g id="face">
            <path id="_2-copy-5" serif:id="2 copy 5" d="M225.337,56.467c53.078,0 94.973,49.601 93.611,109.198l-1.448,63.341c-1.284,56.146 -42.532,100.527 -92.163,100.527c-49.63,0 -90.878,-44.381 -92.162,-100.527l-1.448,-63.341c-1.362,-59.597 40.533,-109.198 93.61,-109.198Z" style="fill:white;fill-rule:nonzero;"/>
            <path id="_2-line" serif:id="2 line" d="M323.212,163.701l-1.517,65.915c-1.345,58.427 -44.566,104.611 -96.571,104.611c-52.005,0 -95.226,-46.184 -96.571,-104.611l-1.517,-65.915c-1.427,-62.018 42.471,-113.634 98.088,-113.634c55.617,0 99.516,51.616 98.088,113.634Zm-98.301,-106.808c-52.352,0 -93.674,49.214 -92.33,108.345l1.428,62.847c1.266,55.708 41.95,99.742 90.902,99.742c48.952,0 89.637,-44.034 90.902,-99.742l1.428,-62.847c1.344,-59.131 -39.978,-108.345 -92.33,-108.345Z" style="fill:rgb(59,67,79);"/>
            <path id="usta" d="M271.203,267.326c-7.755,6.734 -25.272,13.141 -45.654,13.141c-20.381,0 -37.898,-6.407 -45.653,-13.141c0,0 -0.793,-2.183 0.371,-3.348c1.186,-1.185 3.042,-0.927 3.042,-0.927c7.748,6.738 21.851,12.296 42.24,12.296c20.39,0 34.493,-5.558 42.24,-12.296c0,0 1.895,-0.704 2.816,0.216c1.773,1.773 0.598,4.059 0.598,4.059Z" style="fill:rgb(59,67,79);fill-rule:nonzero;"/>
            <rect id="_-" serif:id="-" x="211.469" y="290.707" width="27.307" height="4.267" style="fill:rgb(59,67,79);fill-rule:nonzero;"/>
            <path id="Shape-11-copy" serif:id="Shape 11 copy" d="M126.93,173.313c-0.012,0.001 -1.048,-0.826 -3.004,-1.442c-0.977,-0.307 -2.192,-0.56 -3.577,-0.623c-0.346,-0.015 -0.702,-0.019 -1.066,-0.008c-0.364,0.01 -0.737,0.034 -1.116,0.075c-0.757,0.081 -1.539,0.226 -2.326,0.452c-3.151,0.906 -6.366,3.108 -8.253,7.652c-0.948,2.272 -1.573,5.131 -1.739,8.707c-0.041,0.894 -0.054,1.833 -0.035,2.819c0.018,0.986 0.067,2.018 0.148,3.1c0.164,2.164 0.459,4.523 0.899,7.095c-0.01,-0.003 -0.41,7.77 2.368,16.701c2.612,8.732 8.885,19.458 20.467,22.523c-1.332,-22.179 -1.373,-44.774 -2.766,-67.051l0,0Z" style="fill:white;fill-rule:nonzero;"/>
            <path id="Shape-3" serif:id="Shape 3" d="M128.251,174.207c0,0 -20.177,-6.251 -19.467,14.491c0,0 3.004,30.077 4.309,32.849c0,0 7.923,17.512 21.001,18.288c12.781,0.759 0,0 0,0l0.158,5.645c0,0 -22.984,-2.947 -27.424,-29.435l-3.503,-24.062c0,0 -2.721,-31.845 23.669,-23.748c25.709,7.888 0,0 0,0l1.257,5.972" style="fill:rgb(59,67,79);fill-rule:nonzero;"/>
            <path id="Shape-4" serif:id="Shape 4" d="M121.591,215.995c0,0 -1.129,0.853 -2.099,0.853c-0.97,0 -2.085,-0.853 -2.085,-0.853l-2.083,-20.983c0,0 2.873,-10.333 15.064,-4.873l0.288,6c0,0 -10.695,-3.793 -10.474,0.93c0.213,4.547 1.389,18.926 1.389,18.926Z" style="fill:rgb(59,67,79);fill-rule:nonzero;"/>
            <path id="Shape-11-copy_1" serif:id="Shape 11 copy_1" d="M322.936,173.362c0.012,0.001 1.052,-0.826 3.017,-1.441c0.982,-0.307 2.202,-0.56 3.593,-0.622c0.347,-0.016 0.705,-0.019 1.071,-0.009c0.366,0.01 0.74,0.035 1.12,0.075c0.761,0.081 1.546,0.226 2.337,0.452c3.165,0.905 6.393,3.106 8.289,7.647c0.952,2.271 1.58,5.127 1.746,8.701c0.042,0.893 0.054,1.832 0.036,2.817c-0.018,0.985 -0.067,2.017 -0.149,3.098c-0.165,2.162 -0.461,4.52 -0.903,7.09c0.01,-0.003 0.412,7.765 -2.379,16.69c-2.623,8.726 -8.923,19.445 -20.556,22.508c1.338,-22.164 1.379,-44.744 2.778,-67.006l0,0Z" style="fill:white;fill-rule:nonzero;"/>
            <path id="Shape-3_1" serif:id="Shape 3_1" d="M321.605,174.256c0,0 20.265,-6.248 19.552,14.481c0,0 -3.017,30.056 -4.327,32.827c0,0 -7.959,17.5 -21.093,18.275c-12.837,0.758 0,0 0,0l-0.16,5.641c0,0 23.086,-2.945 27.544,-29.415l3.52,-24.046c0,0 2.732,-31.823 -23.773,-23.732c-25.822,7.883 0,0 0,0l-1.263,5.969" style="fill:rgb(59,67,79);fill-rule:nonzero;"/>
            <path id="Shape-4_1" serif:id="Shape 4_1" d="M328.294,216.015c0,0 1.134,0.853 2.108,0.853c0.975,0 2.095,-0.853 2.095,-0.853l2.091,-20.969c0,0 -2.885,-10.326 -15.129,-4.869l-0.29,5.996c0,0 10.743,-3.791 10.52,0.929c-0.213,4.544 -1.395,18.913 -1.395,18.913Z" style="fill:rgb(59,67,79);fill-rule:nonzero;"/>
            <path id="R-copy" serif:id="R copy" d="M252.45,166.441c0,0 25.544,-14.605 43.793,1.486l4.826,0.748c0,0 -6.182,-22.497 -51.2,-7.869l1.254,4.194m1,0c0,0 25.987,-14.926 43.12,3.927l8.826,-0.252c0,0 -11.008,-24.032 -56.2,-8.869l4.254,6.194" style="fill:rgb(59,67,79);fill-rule:nonzero;"/>
            <path id="R-copy-3" serif:id="R copy 3" d="M197.561,166.526c0,0 -25.459,-14.476 -43.647,1.472l-4.81,0.742c0,0 6.161,-22.298 51.029,-7.799l-1.249,4.156m-0.997,0c0,0 -25.901,-14.794 -42.976,3.893l-8.797,-0.25c0,0 10.972,-23.819 56.012,-8.79l-4.239,6.139" style="fill:rgb(59,67,79);fill-rule:nonzero;"/>
            <path id="fill" d="M319.711,173.8c0,0 39.387,-103.344 -81.898,-126.887c0,0 -25.387,-1.374 -45.215,-25.006c0,0 -14.165,19.418 -5.972,34.268c0,0 -10.426,9.096 -38.39,1.853c0,0 -4.232,9.04 -0.853,19.449c0,0 -35.173,15.209 -18.411,83.24c0.161,0.651 0.326,1.308 0.496,1.969c0,0 15.049,-60.161 25.593,-61.128c0,0 56.814,32.616 104.933,-2.778c0,0 23.758,31.697 52.892,33.342c0,0 5.27,20.441 6.825,41.678Z" style="fill:rgb(193,191,189);fill-rule:nonzero;"/>
            <path id="line" d="M322.403,174.653c-1.184,3.213 -5.12,2.134 -5.12,2.134c-1.555,-21.237 -6.4,-41.814 -6.4,-41.814c-29.518,-3.719 -51.627,-32 -51.627,-32c-47.834,32.875 -104.107,1.28 -104.107,1.28c-11.298,9.368 -22.613,58.88 -22.613,58.88c-0.17,-0.661 -5.813,0.652 -5.973,0c-16.762,-68.03 17.493,-87.04 17.493,-87.04c-3.379,-10.41 2.133,-21.333 2.133,-21.333c27.964,7.243 36.694,0.853 36.694,0.853c-7.393,-18.517 8.96,-37.546 8.96,-37.546c19.828,23.632 46.933,26.026 46.933,26.026c111.549,22.354 91.535,109.102 83.627,130.56Zm-86.187,-125.013c0,0 -22.83,-1.242 -43.093,-22.613c0,0 -11.607,15.443 -3.414,30.293c0,0 -11.716,11.51 -39.68,4.267c0,0 -2.211,5.794 0,16.64c0,0 -31.36,16.19 -20.48,71.253c0.131,0.658 -0.17,-0.235 0,0.427c0,0 13.118,-50.808 25.174,-51.2c0,0 58.862,33.324 106.24,-3.84c0,0 25.052,33.341 54.186,34.986c0,0 2.528,7.146 5.547,28.16c0,0 25.552,-87.405 -84.48,-108.373Z" style="fill:rgb(59,67,79);"/>
            <path id="new_vector_shape_done" d="M200.214,44.947c0.783,0.015 0.781,0.547 1.009,1.101c0.341,0.827 0.646,1.669 1.041,2.456c0.598,1.191 1.212,2.373 1.924,3.462c0.598,0.916 1.247,1.79 1.892,2.66c0.372,0.502 0.822,0.947 1.198,1.448c0.15,0.199 0.351,0.364 0.505,0.566c0.052,0.048 0.105,0.095 0.157,0.142c0.193,0.255 0.439,0.454 0.631,0.708c0.21,0.205 0.421,0.41 0.631,0.614c0.328,0.328 0.636,0.695 1.009,0.976c0.079,0.084 0.158,0.168 0.236,0.252c0.297,0.223 0.539,0.5 0.836,0.724c0.047,0.052 0.095,0.105 0.142,0.157c0.43,0.323 0.802,0.719 1.23,1.039c0.694,0.52 1.35,1.071 2.065,1.574c0.475,0.333 0.942,0.703 1.419,1.038c0.85,0.597 1.747,1.132 2.618,1.7c0.53,0.346 1.098,0.61 1.64,0.944c1.533,0.947 3.212,1.755 4.856,2.582c0.531,0.267 1.06,0.484 1.608,0.724c0.35,0.153 0.729,0.333 1.073,0.503c0.189,0.094 0.373,0.136 0.567,0.221c0.421,0.183 0.874,0.378 1.293,0.566c0.388,0.174 0.767,0.288 1.167,0.441c0.431,0.165 0.889,0.371 1.324,0.535c0.757,0.286 1.523,0.537 2.271,0.818c0.777,0.293 1.555,0.487 2.349,0.756c1.539,0.52 3.176,0.904 4.778,1.385c0.479,0.144 0.979,0.212 1.45,0.346c0.236,0.067 0.541,0.054 0.741,0.157c0.082,0.042 0.175,0.131 0.253,0.189c0.125,0.094 0.222,0.251 0.315,0.378c0.15,0.204 0.308,0.405 0.426,0.645c0.122,0.25 0.155,0.596 0.221,0.882c0.052,0.229 -0.021,0.516 -0.064,0.676c-0.035,0.135 -0.023,0.228 -0.063,0.362c-0.101,0.349 -0.257,0.687 -0.457,0.945c-0.207,0.267 -0.717,0.274 -1.104,0.173c-0.676,-0.177 -1.418,-0.253 -2.081,-0.441c-0.142,-0.04 -0.254,-0.022 -0.394,-0.063c-0.769,-0.222 -1.608,-0.349 -2.365,-0.566c-0.173,-0.05 -0.319,-0.043 -0.489,-0.095c-0.598,-0.182 -1.221,-0.285 -1.829,-0.472c-1.525,-0.468 -3.087,-0.856 -4.541,-1.385c-0.34,-0.124 -0.656,-0.187 -0.993,-0.315c-2.387,-0.9 -4.757,-1.767 -6.938,-2.864c-0.574,-0.289 -1.144,-0.517 -1.703,-0.819c-1.588,-0.855 -3.133,-1.741 -4.636,-2.675c-0.197,-0.123 -0.389,-0.28 -0.583,-0.409c-0.873,-0.582 -1.711,-1.174 -2.554,-1.779c-0.851,-0.61 -1.61,-1.342 -2.444,-1.967c-0.176,-0.132 -0.325,-0.305 -0.505,-0.441c-0.052,-0.057 -0.105,-0.115 -0.158,-0.173c-0.195,-0.147 -0.345,-0.344 -0.536,-0.488c-0.456,-0.345 -0.843,-0.794 -1.245,-1.196c-0.38,-0.379 -0.794,-0.75 -1.12,-1.18c-0.073,-0.069 -0.147,-0.137 -0.22,-0.205c-0.212,-0.28 -0.486,-0.51 -0.694,-0.787c-0.364,-0.482 -0.792,-0.917 -1.151,-1.401c-0.447,-0.601 -0.908,-1.197 -1.34,-1.81c-0.433,-0.613 -0.81,-1.247 -1.215,-1.888c-1.097,-1.738 -1.99,-3.633 -2.822,-5.65c-0.302,-0.732 -0.506,-1.513 -0.757,-2.282c-0.173,-0.53 -0.257,-1.1 -0.41,-1.637c-0.04,-0.14 -0.025,-0.251 -0.063,-0.394c-0.081,-0.306 -0.173,-0.689 -0.063,-1.007c0.049,-0.142 0.252,-0.344 0.394,-0.393c0.1,-0.035 0.196,-0.009 0.268,-0.063Zm-7.741,23.608c0.56,0.003 0.811,0.415 1.056,0.739c0.254,0.336 0.595,0.606 0.851,0.945c0.211,0.209 0.421,0.419 0.631,0.629c0.143,0.189 0.323,0.338 0.489,0.504c0.171,0.171 0.325,0.356 0.52,0.503c0.189,0.189 0.379,0.378 0.568,0.567c0.194,0.147 0.345,0.344 0.536,0.488c0.59,0.445 1.094,1.005 1.687,1.448c0.628,0.469 1.219,0.996 1.861,1.448c0.84,0.592 1.677,1.193 2.538,1.762c0.44,0.292 0.891,0.536 1.34,0.819c0.344,0.216 0.701,0.464 1.057,0.661c1.478,0.818 2.975,1.62 4.509,2.392c1.216,0.611 2.498,1.106 3.753,1.668c0.387,0.174 0.766,0.289 1.167,0.441c0.903,0.343 1.853,0.693 2.775,1.039c0.871,0.327 1.797,0.551 2.68,0.85c0.145,0.049 0.267,0.043 0.41,0.094c0.457,0.164 0.975,0.267 1.451,0.409c0.239,0.072 0.476,0.071 0.709,0.158c0.51,0.19 1.154,0.764 1.341,1.275c0.323,0.885 -0.035,1.892 -0.442,2.471c-0.123,0.174 -0.304,0.461 -0.52,0.535c-0.341,0.116 -0.698,-0.006 -1.009,-0.095c-0.403,-0.115 -0.788,-0.132 -1.183,-0.252c-0.73,-0.22 -1.49,-0.341 -2.223,-0.566c-1.535,-0.472 -3.066,-0.895 -4.525,-1.448c-3.38,-1.28 -6.498,-2.782 -9.366,-4.564c-1.191,-0.74 -2.32,-1.574 -3.438,-2.393c-0.398,-0.291 -0.758,-0.65 -1.151,-0.944c-0.538,-0.403 -0.996,-0.888 -1.529,-1.29c-0.058,-0.063 -0.116,-0.126 -0.173,-0.189c-0.11,-0.097 -0.228,-0.181 -0.332,-0.284c-0.084,-0.089 -0.168,-0.178 -0.252,-0.267c-0.201,-0.152 -0.36,-0.343 -0.536,-0.52c-0.171,-0.171 -0.357,-0.324 -0.504,-0.519c-0.116,-0.11 -0.232,-0.22 -0.347,-0.33c-0.387,-0.511 -0.876,-0.932 -1.262,-1.448c-0.091,-0.122 -0.224,-0.225 -0.315,-0.347c-0.371,-0.492 -0.779,-0.96 -1.135,-1.463c-0.406,-0.573 -0.826,-1.15 -1.199,-1.747c-0.146,-0.235 -0.259,-0.476 -0.41,-0.709c-0.165,-0.255 -0.291,-0.523 -0.441,-0.802c-0.089,-0.166 -0.22,-0.349 -0.284,-0.535c-0.065,-0.189 -0.085,-0.555 0.016,-0.724c0.069,-0.116 0.231,-0.298 0.362,-0.347c0.099,-0.036 0.196,-0.008 0.269,-0.062Zm-10.596,11.489c0.633,0.007 0.792,0.474 1.056,0.85c0.425,0.603 0.914,1.159 1.356,1.747c0.353,0.468 0.813,0.854 1.167,1.322c0.137,0.131 0.273,0.262 0.41,0.393c0.196,0.259 0.497,0.56 0.757,0.755c0.052,0.058 0.105,0.116 0.157,0.174c0.13,0.128 0.263,0.251 0.41,0.362c0.069,0.073 0.137,0.146 0.205,0.22c0.351,0.264 0.644,0.605 0.994,0.866c0.836,0.622 1.632,1.3 2.491,1.904c1.862,1.309 3.914,2.402 6.023,3.462c0.69,0.347 1.423,0.604 2.113,0.945c0.294,0.145 0.596,0.218 0.899,0.346c0.827,0.35 1.713,0.655 2.57,0.976c1.185,0.444 2.442,0.722 3.658,1.133c0.426,0.144 0.881,0.208 1.293,0.346c0.367,0.123 0.742,0.143 1.119,0.252c0.747,0.217 1.58,0.337 2.35,0.535c0.444,0.115 0.895,0.142 1.324,0.252c0.48,0.123 0.983,0.137 1.451,0.252c0.105,0.01 0.21,0.021 0.315,0.031c0.481,0.122 1.04,0.136 1.53,0.252c0.208,0.05 0.388,0.014 0.599,0.063c0.683,0.159 1.463,0.127 2.16,0.283c0.199,0.045 0.406,0.023 0.583,0.063c0.063,0 0.126,0 0.189,0c0.24,0.054 0.546,0.041 0.789,0.095c0.068,0 0.136,0 0.205,0c0.397,0.087 0.877,0.038 1.277,0.126c0.089,0 0.179,0 0.268,0c0.51,0.111 1.123,0.013 1.64,0.125c0.2,0.006 0.399,0.011 0.599,0.016c0.113,0.025 0.293,-0.013 0.426,0.016c0.351,0.076 0.805,0.009 1.167,0.063c0.213,0.032 0.471,-0.025 0.662,0.016c0.168,0.036 0.388,-0.017 0.536,0.015c0.41,0 0.82,0 1.23,0c0.97,0 1.918,-0.027 2.854,-0.031c0.443,-0.002 0.925,-0.099 1.293,0.031c0.207,0.074 0.399,0.256 0.567,0.378c0.379,0.275 0.735,0.667 0.915,1.133c0.054,0.142 0.05,0.268 0.094,0.425c0.072,0.253 0.175,0.65 0.095,0.992c-0.052,0.222 -0.079,0.491 -0.158,0.708c-0.121,0.334 -0.443,0.432 -0.82,0.519c-0.136,0.006 -0.273,0.011 -0.41,0.016c-0.582,0.127 -1.291,0.015 -1.876,0.142c-0.113,0.024 -0.27,-0.005 -0.363,0.015c-0.22,0.006 -0.441,0.011 -0.662,0.016c-0.214,0.046 -0.484,-0.02 -0.725,0.032c-0.202,0.043 -0.449,0.031 -0.678,0.031c-0.084,0 -0.168,0 -0.252,0c-0.195,0.042 -0.469,0.032 -0.678,0.032c-0.305,0 -0.61,0 -0.915,0c-0.284,0.06 -0.679,0.015 -0.993,0.015c-0.261,0 -0.589,0.034 -0.82,-0.015c-0.179,0 -0.358,0 -0.536,0c-0.373,0 -0.741,0 -1.088,-0.032c-0.179,0 -0.358,0 -0.536,0c-0.307,-0.066 -0.706,0.003 -1.009,-0.063c-0.121,0 -0.242,0 -0.363,0c-0.222,-0.048 -0.522,-0.015 -0.741,-0.063c-0.105,0 -0.21,0 -0.316,0c-0.168,-0.037 -0.414,-0.026 -0.583,-0.063c-0.084,0 -0.168,0 -0.252,0c-0.585,-0.129 -1.257,-0.061 -1.829,-0.189c-0.158,-0.01 -0.316,-0.021 -0.473,-0.031c-0.742,-0.169 -1.564,-0.143 -2.287,-0.315c-0.196,-0.047 -0.358,-0.015 -0.551,-0.063c-0.672,-0.164 -1.412,-0.209 -2.066,-0.377c-0.108,-0.028 -0.176,-0.004 -0.284,-0.032c-0.309,-0.081 -0.672,-0.133 -0.977,-0.22c-0.143,-0.041 -0.252,-0.022 -0.395,-0.063c-1.062,-0.306 -2.169,-0.466 -3.216,-0.787c-1.854,-0.568 -3.728,-1.077 -5.408,-1.826c-0.381,-0.17 -0.76,-0.268 -1.136,-0.441c-0.663,-0.305 -1.348,-0.583 -2.002,-0.912c-1.023,-0.515 -2.023,-1.057 -3.012,-1.606c-0.695,-0.386 -1.364,-0.857 -2.018,-1.29c-0.537,-0.356 -1.055,-0.704 -1.577,-1.07c-0.513,-0.361 -0.992,-0.776 -1.498,-1.149c-0.514,-0.38 -0.954,-0.858 -1.466,-1.244c-0.194,-0.146 -0.358,-0.389 -0.552,-0.535c-0.477,-0.36 -0.872,-0.839 -1.293,-1.259c-1.795,-1.792 -3.32,-3.851 -4.683,-6.075c-0.314,-0.513 -0.543,-1.049 -0.82,-1.605c-0.125,-0.254 -0.257,-0.596 -0.126,-0.945c0.042,-0.111 0.267,-0.336 0.379,-0.377c0.091,-0.035 0.199,-0.011 0.268,-0.063Zm104.349,15.518c0.574,0.006 0.751,0.387 0.993,0.724c0.24,0.332 0.511,0.644 0.757,0.976c0.521,0.703 1.176,1.303 1.703,1.998c0.184,0.243 0.444,0.431 0.631,0.677c0.073,0.068 0.147,0.137 0.22,0.205c0.256,0.338 0.601,0.615 0.899,0.913c0.258,0.257 0.515,0.514 0.773,0.771c0.405,0.306 0.733,0.735 1.135,1.039c0.23,0.173 0.42,0.396 0.646,0.566c0.746,0.56 1.423,1.21 2.176,1.763c1.135,0.832 2.271,1.672 3.453,2.455c1.779,1.178 3.667,2.241 5.582,3.274c1.088,0.586 2.228,1.084 3.343,1.637c0.396,0.196 0.812,0.343 1.198,0.535c0.143,0.07 0.283,0.086 0.426,0.157c0.617,0.305 1.304,0.536 1.939,0.818c0.164,0.073 0.306,0.094 0.473,0.158c0.619,0.234 1.274,0.473 1.908,0.708c0.357,0.132 0.78,0.183 1.104,0.362c0.818,0.452 1.572,1.421 1.151,2.707c-0.15,0.458 -0.404,0.814 -0.662,1.165c-0.178,0.242 -0.401,0.338 -0.726,0.44c-0.079,0.025 -0.433,-0.1 -0.504,-0.126c-0.435,-0.157 -0.872,-0.232 -1.309,-0.377c-2.259,-0.751 -4.429,-1.546 -6.512,-2.455c-3.372,-1.473 -6.395,-3.351 -9.24,-5.352c-0.827,-0.581 -1.574,-1.27 -2.38,-1.872c-0.237,-0.177 -0.439,-0.403 -0.678,-0.583c-0.048,-0.052 -0.095,-0.105 -0.142,-0.157c-0.321,-0.242 -0.579,-0.546 -0.899,-0.787c-0.142,-0.147 -0.284,-0.294 -0.426,-0.441c-0.161,-0.121 -0.285,-0.268 -0.426,-0.409c-0.14,-0.141 -0.288,-0.264 -0.41,-0.425c-0.099,-0.094 -0.199,-0.189 -0.299,-0.283c-0.181,-0.181 -0.366,-0.378 -0.52,-0.583c-0.095,-0.094 -0.19,-0.188 -0.284,-0.283c-0.203,-0.268 -0.463,-0.49 -0.662,-0.755c-0.521,-0.692 -1.089,-1.332 -1.593,-2.046c-0.453,-0.642 -0.951,-1.278 -1.372,-1.952c-0.539,-0.863 -1.033,-1.753 -1.513,-2.675c-0.212,-0.405 -0.451,-0.913 -0.6,-1.354c-0.066,-0.196 -0.085,-0.547 0.016,-0.724c0.069,-0.12 0.228,-0.296 0.363,-0.346c0.091,-0.035 0.199,-0.011 0.268,-0.063Z" style="fill:rgb(59,67,79);fill-opacity:0.2;"/>
            <path id="new_vector_shape_done_1" d="M233.016,214.333c0.498,0 0.996,0 1.493,0c3.088,4.193 4.344,10.637 5.974,16.214c0.505,1.728 0.015,4.751 -0.427,5.973c-1.618,4.476 -6.698,4.395 -10.88,6.4c-1.123,0.538 -1.959,1.468 -3.413,1.707c-0.949,-0.836 -2.093,-1 -2.56,-2.347c-1.153,-1.587 0.333,-2.578 1.493,-3.2c2.106,-1.13 8.608,-2.243 9.387,-4.267c0.963,-1.095 0.323,-4.39 0,-5.546c-0.827,-2.962 -1.224,-5.435 -2.347,-8.107c-0.746,-1.775 -2.056,-3.646 -1.28,-5.76c0.643,-0.276 2.033,-0.59 2.56,-1.067Z" style="fill:rgb(59,67,79);"/>
            <path id="oko" d="M178.189,178.067c4.713,0 8.534,3.82 8.534,8.533c0,4.713 -3.821,8.533 -8.534,8.533c-4.712,0 -8.533,-3.82 -8.533,-8.533c0,-4.713 3.821,-8.533 8.533,-8.533Z" style="fill:rgb(59,67,79);fill-rule:nonzero;"/>
            <path id="oko_1" d="M272.909,178.067c4.713,0 8.534,3.82 8.534,8.533c0,4.713 -3.821,8.533 -8.534,8.533c-4.712,0 -8.533,-3.82 -8.533,-8.533c0,-4.713 3.821,-8.533 8.533,-8.533Z" style="fill:rgb(59,67,79);fill-rule:nonzero;"/>
            <path id="Ellipse-3" serif:id="Ellipse 3" d="M276.749,209.64c5.891,0 10.667,4.776 10.667,10.667c0,5.891 -4.776,10.666 -10.667,10.666c-5.891,0 -10.666,-4.775 -10.666,-10.666c0,-5.891 4.775,-10.667 10.666,-10.667Z" style="fill:rgb(245,243,239);fill-rule:nonzero;"/>
            <path id="Ellipse-3-copy" serif:id="Ellipse 3 copy" d="M173.496,209.64c5.891,0 10.667,4.776 10.667,10.667c0,5.891 -4.776,10.666 -10.667,10.666c-5.891,0 -10.667,-4.775 -10.667,-10.666c0,-5.891 4.776,-10.667 10.667,-10.667Z" style="fill:rgb(244,243,239);fill-rule:nonzero;"/>
        </g>
    </g>
</svg>
