<?xml version="1.0" encoding="UTF-8" standalone="no"?>
<!DOCTYPE svg PUBLIC "-//W3C//DTD SVG 1.1//EN" "http://www.w3.org/Graphics/SVG/1.1/DTD/svg11.dtd">
<svg width="219px" height="44px" viewBox="0 0 219 44" version="1.1" xmlns="http://www.w3.org/2000/svg" xmlns:xlink="http://www.w3.org/1999/xlink" xml:space="preserve" xmlns:serif="http://www.serif.com/" style="fill-rule:evenodd;clip-rule:evenodd;stroke-linejoin:round;stroke-miterlimit:1.41421;">
    <g>
        <path d="M4.673,21.174c0,5.588 4.064,9.804 9.601,9.804c5.588,0 9.601,-4.216 9.601,-9.804c0,-5.638 -4.013,-9.905 -9.601,-9.905c-5.537,0 -9.601,4.267 -9.601,9.905Zm9.601,-14.274c8.026,0 14.274,5.994 14.274,14.274c0,8.229 -6.248,14.224 -14.274,14.224c-8.026,0 -14.274,-5.995 -14.274,-14.224c0,-8.28 6.248,-14.274 14.274,-14.274Z" style="fill:rgb(129,142,171);fill-rule:nonzero;"/>
        <path d="M43.332,26.126c0,0.472 0.176,0.927 0.485,1.285c2.219,2.569 5.047,3.669 8.404,3.669c5.487,0 9.347,-3.962 9.347,-9.906c0,-5.994 -3.86,-9.956 -9.347,-9.956c-3.183,0 -6.107,1.078 -8.335,3.593c-0.356,0.402 -0.554,0.922 -0.554,1.46l0,9.855Zm-3.173,17.4c-0.801,0 -1.45,-0.65 -1.45,-1.451l0,-33.319c0,-0.801 0.649,-1.45 1.45,-1.45l2.924,0l-0.005,2.744l0.355,0c2.235,-2.236 5.334,-3.15 8.788,-3.15c7.976,0 13.97,5.74 13.97,14.274c0,8.534 -5.994,14.224 -13.97,14.224c-3.454,0 -6.502,-0.965 -8.889,-3.251l0,9.928c0,0.801 -0.65,1.451 -1.451,1.451l-1.722,0Z" style="fill:rgb(129,142,171);fill-rule:nonzero;"/>
        <path d="M113.791,8.756c0,-0.801 0.649,-1.45 1.45,-1.45l2.92,0l-0.001,2.896l0.254,0c2.438,-2.286 5.079,-3.302 8.331,-3.302c7.162,0 12.039,4.166 12.039,12.446l0,14.196c0,0.8 -0.649,1.45 -1.45,1.45l-1.723,0c-0.801,0 -1.45,-0.65 -1.45,-1.45l0,-13.993c0,-5.334 -2.591,-8.331 -7.518,-8.331c-3.424,0 -5.887,1.419 -7.909,3.867c-0.211,0.255 -0.32,0.581 -0.32,0.912l0,17.545c0,0.8 -0.65,1.45 -1.451,1.45l-1.722,0c-0.801,0 -1.45,-0.65 -1.45,-1.45l0,-24.786Z" style="fill:rgb(129,142,171);fill-rule:nonzero;"/>
        <path d="M187.727,10.792c0.8,0 1.45,0.649 1.45,1.45l0,21.3c0,0.8 -0.65,1.45 -1.45,1.45l-1.723,0c-0.801,0 -1.45,-0.65 -1.45,-1.45l0,-21.3c0,-0.801 0.649,-1.45 1.45,-1.45l1.723,0Zm-4.494,-7.01c0,-1.981 1.677,-3.658 3.658,-3.658c1.879,0 3.607,1.677 3.607,3.658c0,1.981 -1.728,3.658 -3.607,3.658c-1.981,0 -3.658,-1.677 -3.658,-3.658Z" style="fill:rgb(129,142,171);fill-rule:nonzero;"/>
        <path d="M215.354,31.774c0,-0.585 0.352,-1.087 0.856,-1.307c0.016,-0.007 0.033,-0.014 0.049,-0.02c0.161,-0.063 0.336,-0.097 0.519,-0.097c0.587,0 1.091,0.355 1.309,0.861l0.446,1.04c0.081,0.179 0.127,0.379 0.127,0.59c0,0.538 -0.298,1.006 -0.738,1.248c-0.016,0.009 -0.033,0.018 -0.05,0.026c-0.191,0.096 -0.407,0.15 -0.636,0.15c-0.787,0 -1.424,-0.638 -1.424,-1.424l-0.458,-1.067Z" style="fill:rgb(129,142,171);fill-rule:nonzero;"/>
        <path d="M217.923,34.091c-1.62,0.859 -3.362,1.307 -5.226,1.307c-5.639,0 -8.483,-3.454 -8.483,-8.941l0,-14.833l-2.665,0c-0.801,0 -1.45,-0.649 -1.45,-1.45l0,-2.84l2.85,-0.017c0.702,-0.061 1.258,-0.472 1.319,-1.173l-0.004,-5.297l3.122,0.008c0.801,0 1.45,0.649 1.45,1.45l0,3.551c0,0.801 0.649,1.45 1.45,1.45l5.787,0c0.801,0 1.45,0.649 1.45,1.45l0,1.418c0,0.801 -0.649,1.45 -1.45,1.45l-7.237,0l0,14.681c0,3.048 1.626,4.775 4.267,4.775c1.148,0 2.13,-0.231 3.107,-0.614l1.713,3.625Z" style="fill:rgb(129,142,171);fill-rule:nonzero;"/>
        <path d="M170.937,13.787c-0.262,0.321 -0.66,0.525 -1.105,0.525c-0.787,0 -1.425,-0.637 -1.425,-1.424c0,-0.786 0.638,-1.424 1.425,-1.424l-0.453,0.196c0,-0.786 0.637,-1.424 1.424,-1.424c0.786,0 1.424,0.638 1.424,1.424c0,0.332 -0.113,0.637 -0.303,0.879l-0.987,1.248Z" style="fill:rgb(129,142,171);fill-rule:nonzero;"/>
        <path d="M149.602,28.066c0.261,-0.32 0.659,-0.525 1.105,-0.525c0.786,0 1.424,0.637 1.424,1.424c0,0.787 -0.638,1.424 -1.424,1.424l0.453,-0.196c0,0.787 -0.638,1.424 -1.424,1.424c-0.787,0 -1.425,-0.637 -1.425,-1.424c0,-0.331 0.114,-0.636 0.303,-0.878l0.988,-1.249Z" style="fill:rgb(129,142,171);fill-rule:nonzero;"/>
        <path d="M168.957,14.014c-2.327,-1.797 -5.104,-2.796 -8.533,-2.796c-4.267,0 -6.502,1.169 -6.502,3.352c0,2.083 2.997,3.048 7.315,3.607c7.061,0.813 12.141,2.895 12.141,8.788c0,5.537 -5.537,8.433 -12.344,8.433c-4.777,0 -8.9,-1.29 -12.247,-4.148l2.817,-3.4c2.717,2.315 5.745,3.23 9.43,3.23c5.08,0 7.772,-1.727 7.772,-4.115c0,-2.692 -3.099,-3.657 -8.178,-4.267c-5.842,-0.66 -11.278,-2.285 -11.278,-8.128c0,-4.622 4.42,-7.67 11.176,-7.67c4.002,0 8.134,1.221 11.184,3.665l-2.753,3.449Z" style="fill:rgb(129,142,171);fill-rule:nonzero;"/>
        <path d="M100.992,29.486c0.32,0.262 0.525,0.659 0.525,1.105c0,0.787 -0.638,1.425 -1.424,1.425c-0.787,0 -1.424,-0.638 -1.424,-1.425l0.196,0.453c-0.787,0 -1.424,-0.637 -1.424,-1.424c0,-0.786 0.637,-1.424 1.424,-1.424c0.331,0 0.636,0.113 0.877,0.303l1.25,0.987Z" style="fill:rgb(129,142,171);fill-rule:nonzero;"/>
        <path d="M101.866,16.62c0.987,0.662 1.681,1.795 1.681,3.051c0,1.981 -1.727,3.657 -3.607,3.657c-1.086,0 -2.081,-0.504 -2.758,-1.286l4.684,-5.422Z" style="fill:rgb(129,142,171);fill-rule:nonzero;"/>
        <path d="M81.98,19.041l15.084,0c1.003,0 1.716,-1 1.368,-1.941c-1.269,-3.437 -4.63,-5.882 -8.72,-5.882c-4.262,0 -7.721,2.335 -9.08,5.83c-0.372,0.957 0.32,1.993 1.348,1.993Zm17.96,4.267l-19.778,0c0.762,4.521 4.317,7.772 9.804,7.772c3.073,0 5.532,-0.764 8.069,-2.614l2.98,3.207c-3.309,2.564 -7.021,3.725 -11.049,3.725c-8.738,0 -14.63,-6.045 -14.63,-14.224c0,-8.28 6.146,-14.274 14.376,-14.274c7.489,0 13.057,5.154 13.827,12.505l-3.599,3.903Z" style="fill:rgb(129,142,171);fill-rule:nonzero;"/>
    </g>
</svg>
