<?xml version="1.0" encoding="UTF-8" standalone="no"?>
<!DOCTYPE svg PUBLIC "-//W3C//DTD SVG 1.1//EN" "http://www.w3.org/Graphics/SVG/1.1/DTD/svg11.dtd">
<svg width="200px" height="132px" viewBox="0 0 200 132" version="1.1" xmlns="http://www.w3.org/2000/svg" xmlns:xlink="http://www.w3.org/1999/xlink" xml:space="preserve" xmlns:serif="http://www.serif.com/" style="fill-rule:evenodd;clip-rule:evenodd;stroke-linejoin:round;stroke-miterlimit:1.41421;">
  <path d="M82.212,67.35c0.537,-0.503 1.171,-0.928 2.281,-1.229c1.529,-0.417 3.785,-1.076 4.907,-1.48c1.125,-0.388 1.947,-0.765 2.596,-1.031c0.538,-0.217 1.367,-0.514 2.19,-0.828c0.829,-0.311 1.156,-0.362 1.524,-0.454c0.371,-0.088 0.276,-0.585 0.29,-1.018c0.007,-0.439 0.096,-1.391 0.064,-2.029c-0.034,-0.638 -0.138,-1.339 -0.159,-1.707c-0.02,-0.371 -0.307,-0.694 -0.586,-1.42c-0.266,-0.726 -0.473,-1.892 -0.509,-2.091c-0.049,-0.204 -0.587,-0.174 -0.904,-0.559c-0.324,-0.386 -0.155,-1.069 -0.233,-1.238c-0.074,-0.166 -0.448,-0.918 -0.473,-1.391c-0.029,-0.469 -0.227,-1.133 -0.354,-1.496c-0.124,-0.366 -0.307,-0.692 -0.226,-1.093c0.078,-0.418 0.476,-0.473 0.725,-0.418c0.236,0.056 0.256,-0.106 0.226,-0.782c-0.033,-0.673 0.01,-4.243 0.01,-4.243c0.18,-1.8 0.253,-3.045 1.702,-5.449c0.872,-1.442 2.087,-2.059 3.958,-2.683c1.477,-0.49 2.871,-0.504 3.795,-0.418c2.448,0.248 4.093,1.611 5.125,2.699c1.038,1.092 1.793,2.702 2.076,4.14c0.276,1.432 0.011,4.074 -0.148,4.926c-0.16,0.848 -0.083,1.076 -0.055,1.552c0.016,0.465 0.41,0.106 0.651,0.199c0.238,0.09 0.387,0.316 0.376,0.757c-0.017,0.433 -0.335,0.854 -0.503,1.372c-0.173,0.51 -0.128,0.679 -0.145,1.084c-0.011,0.401 -0.314,0.992 -0.435,1.271c-0.117,0.271 -0.258,1.021 -0.572,1.311c-0.321,0.28 -0.669,0.231 -0.87,0.242c-0.2,0.013 -0.347,1.098 -0.421,1.607c-0.075,0.507 -0.434,1.435 -0.679,1.821c-0.252,0.386 -0.252,1.025 -0.252,1.664c0,0.637 0.014,2.183 0.066,2.523c0.051,0.331 1.724,0.85 2.445,1.016c0.717,0.171 2.4,0.819 3.183,1.047c0.793,0.231 2.739,0.704 4.135,1.066c1.304,0.339 3.246,0.789 4.173,1.167c3.936,-4.044 8.275,-7.603 12.934,-10.725c-0.024,-0.482 -0.059,-0.963 -0.097,-1.441c-0.051,-0.644 -0.097,-1.289 -0.162,-1.931c-0.07,-0.69 -0.159,-1.376 -0.249,-2.059c-0.082,-0.622 -0.156,-1.249 -0.252,-1.866c-0.11,-0.694 -0.238,-1.376 -0.369,-2.062c-0.11,-0.6 -0.221,-1.202 -0.348,-1.801c-0.145,-0.687 -0.32,-1.363 -0.49,-2.045c-0.144,-0.583 -0.282,-1.167 -0.444,-1.749c-0.187,-0.682 -0.411,-1.355 -0.621,-2.028c-0.179,-0.566 -0.349,-1.135 -0.545,-1.697c-0.231,-0.672 -0.497,-1.338 -0.759,-2.007c-0.214,-0.548 -0.414,-1.102 -0.645,-1.649c-0.279,-0.662 -0.593,-1.314 -0.897,-1.972c-0.254,-0.538 -0.489,-1.081 -0.758,-1.614c-0.328,-0.649 -0.69,-1.284 -1.042,-1.925c-0.293,-0.531 -0.565,-1.066 -0.879,-1.594c-0.359,-0.604 -0.748,-1.195 -1.135,-1.795c-0.352,-0.554 -0.686,-1.115 -1.062,-1.666c-0.414,-0.596 -0.859,-1.182 -1.297,-1.771c-0.393,-0.539 -0.769,-1.081 -1.186,-1.611c-0.473,-0.6 -0.98,-1.188 -1.483,-1.781c-0.431,-0.509 -0.839,-1.026 -1.287,-1.531c-0.538,-0.6 -1.124,-1.19 -1.694,-1.782c-0.462,-0.487 -0.9,-0.976 -1.386,-1.457c-0.614,-0.606 -1.276,-1.2 -1.921,-1.797c-0.489,-0.453 -0.955,-0.915 -1.469,-1.364c-0.714,-0.631 -1.487,-1.248 -2.238,-1.869c-0.493,-0.404 -0.959,-0.817 -1.472,-1.219c-0.87,-0.684 -1.801,-1.357 -2.721,-2.032c-0.445,-0.325 -0.863,-0.656 -1.321,-0.982c-1.404,-0.99 -2.867,-1.97 -4.386,-2.935c-1.295,0.94 -2.529,1.878 -3.725,2.816c-0.148,0.116 -0.3,0.233 -0.451,0.352c-1.116,0.887 -2.189,1.775 -3.22,2.663c-0.185,0.159 -0.37,0.314 -0.55,0.474c-1,0.873 -1.964,1.747 -2.885,2.623c-0.164,0.155 -0.323,0.31 -0.489,0.469c-0.92,0.888 -1.814,1.779 -2.655,2.672c-0.099,0.101 -0.19,0.204 -0.287,0.308c-0.935,1.003 -1.832,2.007 -2.671,3.014c-0.068,0.079 -0.132,0.159 -0.195,0.238c-0.856,1.028 -1.663,2.059 -2.416,3.09c-0.041,0.052 -0.074,0.104 -0.112,0.152c-0.77,1.062 -1.5,2.126 -2.175,3.192c-0.008,0.015 -0.019,0.029 -0.026,0.044c-0.674,1.069 -1.305,2.144 -1.892,3.22c-0.017,0.038 -0.04,0.072 -0.057,0.108c-0.643,1.185 -1.231,2.383 -1.769,3.579c-0.014,0.03 -0.028,0.062 -0.042,0.093c-0.519,1.169 -0.996,2.344 -1.427,3.524c-0.024,0.076 -0.052,0.155 -0.081,0.235c-0.409,1.134 -0.777,2.283 -1.106,3.428c-0.03,0.107 -0.055,0.218 -0.088,0.325c-0.313,1.125 -0.596,2.255 -0.84,3.392c-0.024,0.123 -0.053,0.251 -0.077,0.377c-0.234,1.123 -0.438,2.252 -0.611,3.392c-0.022,0.136 -0.04,0.274 -0.061,0.412c-0.165,1.134 -0.303,2.276 -0.413,3.428c-0.011,0.135 -0.024,0.273 -0.039,0.41c-0.106,1.159 -0.18,2.327 -0.232,3.501c-0.007,0.128 -0.014,0.259 -0.019,0.39c-0.052,1.197 -0.078,2.4 -0.081,3.616c-0.004,0.064 -0.004,0.129 -0.004,0.192c4.872,3.361 9.37,7.216 13.403,11.621Z" style="fill:#d29dc1;fill-rule:nonzero;" />
  <path d="M118.139,97.925c-0.317,0.362 -0.648,0.725 -0.972,1.083c-0.011,0.859 -0.015,1.71 0.003,2.38c0.503,-0.335 1.018,-0.673 1.546,-1c-0.153,-0.531 -0.27,-0.99 -0.3,-1.239c-0.035,-0.265 -0.153,-0.737 -0.277,-1.224Z" style="fill:#bedabc;fill-rule:nonzero;" />
  <path d="M125.099,88.72c0.048,0.935 0.11,1.973 0.141,2.483c0.042,0.839 0.293,3.087 0.452,4.156c0.055,0.345 0.148,0.745 0.249,1.139c7.874,-3.604 17.786,-6.281 30.116,-6.846c8.809,-12.675 15.068,-29.303 15.048,-50.959c-13.014,3.828 -25.857,8.886 -36.959,16.324c0.02,0.415 0.042,0.838 0.066,1.255c0.541,12.455 -3.215,23.223 -9.113,32.448Z" style="fill:#bedabc;fill-rule:nonzero;" />
  <path d="M118.139,97.925c-0.168,-0.648 -0.355,-1.335 -0.372,-1.611c-0.024,-0.5 -0.376,-1.572 -0.452,-1.297c-0.042,0.152 -0.121,2.097 -0.148,3.991c0.324,-0.358 0.655,-0.721 0.972,-1.083Z" style="fill:#a78e96;fill-rule:nonzero;" />
  <path d="M121.188,65.758c0.072,0.029 0.145,0.059 0.203,0.086c0.832,0.395 1.597,1.53 2.008,2.385c0.417,0.857 0.976,3.188 1.265,4.15c0.289,0.959 0.493,3.743 0.469,4.453c-0.031,0.707 -0.176,4.352 -0.214,5.094c-0.024,0.745 0.093,4.373 0.114,5.284c0.003,0.352 0.031,0.911 0.065,1.511c5.898,-9.226 9.654,-19.993 9.113,-32.448c-0.025,-0.418 -0.045,-0.841 -0.067,-1.256c-0.01,0.005 -0.014,0.011 -0.024,0.016c-4.658,3.122 -8.997,6.681 -12.932,10.725Z" style="fill:#a78e96;fill-rule:nonzero;" />
  <path d="M78.953,91.779c-5.598,-9.384 -10.166,-21.376 -10.142,-35.535c0,-0.174 -0.003,-0.343 0,-0.514c-11.34,-7.829 -24.582,-13.088 -38.005,-17.037c-0.021,21.718 6.277,38.384 15.122,51.069c13.718,0.9 24.336,4.435 32.408,8.888c0.186,-1.683 0.472,-5.429 0.617,-6.871Z" style="fill:#bedabc;fill-rule:nonzero;" />
  <path d="M87.738,103.934c-0.59,-0.679 -1.183,-1.394 -1.783,-2.135c-0.088,0.303 -0.152,0.534 -0.152,0.534c0,0 -0.105,0.425 -0.253,0.987c0.725,0.552 1.419,1.108 2.087,1.663c0.023,-0.305 0.059,-0.653 0.101,-1.049Z" style="fill:#bedabc;fill-rule:nonzero;" />
  <path d="M87.738,103.934c0.169,-1.573 0.424,-3.677 0.367,-4.732c-0.07,-1.383 -0.158,-3 -0.293,-3.89c-0.134,-0.89 -0.557,-1.136 -0.576,-0.687c-0.017,0.452 -0.212,0.997 -0.3,1.941c-0.085,0.956 -0.462,3.173 -0.651,3.946c-0.099,0.425 -0.229,0.914 -0.331,1.287c0.601,0.741 1.194,1.456 1.784,2.135Z" style="fill:#a78e96;fill-rule:nonzero;" />
  <path d="M78.953,91.779c0.021,-0.186 0.035,-0.351 0.053,-0.452c0.152,-1.017 0.197,-5.259 0.113,-6.943c-0.085,-1.676 -0.455,-4.762 -0.644,-5.759c-0.186,-0.997 0.259,-4.122 0.573,-5.96c0.307,-1.835 1.875,-3.94 2.575,-4.715c0.193,-0.214 0.384,-0.413 0.59,-0.601c-4.033,-4.404 -8.531,-8.261 -13.401,-11.619c-0.004,0.17 0,0.339 0,0.514c-0.025,14.159 4.544,26.151 10.141,35.535Z" style="fill:#a78e96;fill-rule:nonzero;" />
  <path d="M59.181,127.696c-0.897,-1.097 -1.173,-2.462 -1.396,-3.493c-0.226,-1.038 -0.027,-2.494 0.243,-3.018c0.28,-0.518 1.223,-1.807 1.516,-2.062c0.284,-0.255 -0.535,0.093 -0.902,0.249c-0.358,0.151 -1.263,0.369 -2.026,0.437c-0.769,0.076 -1.2,0.2 -2.037,0.342c-0.833,0.151 -1.445,0.144 -1.883,0.172c-0.432,0.017 -1.022,0.282 -1.295,0.338c-0.266,0.042 -0.384,0.289 -0.62,0.363c-0.23,0.086 -0.745,0.086 -1.021,0c-0.276,-0.087 -0.071,-0.622 -0.185,-0.746c-0.105,-0.131 -0.526,-0.137 -0.826,-0.124c-0.3,0.017 -0.567,-0.069 -0.977,-0.048c-0.399,0.024 -0.732,0.11 -1.338,0.138c-0.604,0.034 -0.361,-0.452 -0.381,-0.855c-0.017,-0.401 -1.13,0.307 -1.526,0.393c-0.406,0.089 -0.511,-0.366 -0.46,-0.828c0.094,-0.669 1.213,-1.355 2.013,-1.465c0.802,-0.111 2.076,-0.235 2.557,-0.259c0.466,-0.02 0.918,-0.314 1.454,-0.341c0.545,-0.024 0.272,-0.079 0.054,-0.338c-0.216,-0.262 -0.846,-1.98 -0.991,-2.311c-0.152,-0.324 0.024,-0.741 0.134,-1.352c0.098,-0.613 0.692,-2.124 0.857,-2.741c0.176,-0.614 0.114,-1.825 0.364,-2.104c0.131,-0.145 -0.046,0.089 0.202,-0.145c0.122,-0.128 0.122,-0.717 0.283,-0.959c0.313,-0.487 0.719,-0.442 1.126,-0.324c0.409,0.106 1.352,1.342 1.925,1.979c0.567,0.649 1.584,1.877 2.068,2.187c0.488,0.314 1.717,0.582 2.335,0.89c0.618,0.304 1.129,1.086 1.754,1.255c0.615,0.166 1.472,-0.082 2.399,-0.465c0.843,-0.351 2.606,-1.535 3.543,-2.131c-7.127,-5.274 -14.249,-12.013 -20.214,-20.567c-2.224,-0.145 -4.527,-0.221 -6.914,-0.221c-11.11,0 -24.037,1.656 -39.016,5.704c11.956,18.649 37.926,33.524 63.104,35.966c-0.186,-0.093 -0.352,-0.175 -0.487,-0.259c-0.945,-0.594 -2.536,-2.163 -3.436,-3.257Z" style="fill:#9ad4df;fill-rule:nonzero;" />
  <path d="M52.237,110.597c-0.267,0.014 -0.283,0.597 -0.434,1.193c-0.145,0.59 -0.152,1.308 -0.095,1.577c0.057,0.262 0.293,1.283 0.35,1.642c0.068,0.356 0.505,0.062 0.668,-0.169c0.169,-0.23 0.783,-1.304 0.943,-1.8c0.148,-0.503 -1.011,-2.058 -1.011,-2.058c0,0 -0.151,-0.399 -0.421,-0.385Z" style="fill:#9ad4df;fill-rule:nonzero;" />
  <path d="M69.165,115.639c-0.587,0.124 -1.332,0.431 -1.456,0.617c-0.125,0.183 1.223,0.249 1.859,0.308c0.632,0.055 2.461,0.21 3.452,0.248c0.766,0.024 2.313,0.18 3.584,0.317c-1.49,-0.848 -3.011,-1.769 -4.547,-2.745c-0.057,0.027 -0.124,0.059 -0.176,0.083c-0.916,0.406 -2.14,1.055 -2.716,1.172Z" style="fill:#9ad4df;fill-rule:nonzero;" />
  <path d="M77.632,117.246c1.31,0.159 3.452,0.559 4.163,0.521c0.724,-0.038 2.909,0.2 3.111,-0.221c0.201,-0.414 0.498,-2.242 0.735,-2.931c0.228,-0.683 0.73,-2.26 1.143,-3.764c0.42,-1.499 0.724,-4.204 0.829,-5.625c0.004,-0.073 0.016,-0.165 0.023,-0.245c-0.668,-0.555 -1.361,-1.11 -2.087,-1.662c-0.28,1.059 -0.714,2.635 -0.94,2.942c-0.328,0.465 -1.726,1.389 -2.454,1.918c-0.738,0.531 -3.114,2.272 -3.114,2.272l-0.957,0.683c0,0 -1.551,1.2 -2.69,1.707c-1.079,0.483 -2.411,1.127 -3.337,1.542c1.537,0.976 3.057,1.896 4.547,2.744c0.378,0.044 0.732,0.089 1.028,0.119Z" style="fill:#76c1ac;fill-rule:nonzero;" />
  <path d="M66.142,110.328c0.081,-0.055 0.174,-0.106 0.245,-0.152c0.843,-0.517 4.149,-3.049 4.72,-3.683c0.573,-0.638 3.785,-3.632 4.361,-4.067c0.592,-0.435 1.507,-1.021 2.023,-1.455c0.516,-0.428 0.555,-0.969 0.728,-1.518c0.027,-0.1 0.071,-0.394 0.117,-0.804c-8.072,-4.453 -18.69,-7.988 -32.408,-8.888c5.964,8.554 13.086,15.293 20.214,20.567Z" style="fill:#76c1ac;fill-rule:nonzero;" />
  <path d="M148.051,111.932c0.224,-0.014 0.283,-0.645 0.531,-0.928c0.256,-0.286 0.432,-0.338 0.497,-0.79c0.066,-0.451 0.183,-1.72 0.121,-2.028c-0.07,-0.314 0.186,-0.772 -0.038,-0.717c-0.224,0.059 -0.725,0.668 -0.725,0.668c0,0 -0.769,0.845 -0.879,1.346c-0.11,0.503 -0.227,0.776 -0.121,1.176c0.122,0.393 0.388,1.279 0.614,1.273Z" style="fill:#9ad4df;fill-rule:nonzero;" />
  <path d="M137.805,108.759c0.59,0.3 1.49,0.4 2.311,0.324c0.968,-0.079 1.855,-0.6 2.748,-1.014c0.883,-0.418 2.077,-0.755 2.412,-0.804c0.338,-0.048 1.007,-0.62 1.376,-0.804c0.359,-0.19 1.815,-1.986 2.132,-2.272c0.32,-0.283 1.131,-0.934 1.669,-0.963c0.538,-0.031 0.969,0.459 0.993,0.925c0.024,0.468 -0.193,0.686 -0.224,0.921c-0.017,0.238 -0.044,1.62 -0.044,1.62c0,0.745 0.041,1.58 0.121,2.414c0.082,0.842 0.3,1.839 0.192,2.322c-0.11,0.468 -0.328,0.686 -0.52,0.965c-0.194,0.276 0.362,-0.059 0.362,-0.059c0,0 0.903,-0.21 1.406,-0.237c0.504,-0.024 1.043,-0.017 1.546,0.02c0.514,0.042 0.758,0.331 1.024,0.789c0.262,0.46 0.203,0.801 -0.014,1.114c-0.218,0.311 -0.4,0.125 -0.879,-0.089c-0.487,-0.211 -0.777,0.041 -1.141,0.058c-0.366,0.021 -0.762,0.28 -1.259,0.442c-0.493,0.159 -0.69,0.265 -1.022,0.386c-0.327,0.117 -0.748,0.407 -1.051,0.459c-0.304,0.048 -0.414,0.2 -0.624,0.369c-0.135,0.114 -0.348,0.162 -0.669,0.172c-0.307,0.011 -0.383,0.256 -0.683,0.342c-0.307,0.079 -0.535,0.089 -0.831,0.11c-0.311,0.014 -0.587,0.431 -0.918,0.555c-0.328,0.117 -0.438,0.086 -1.021,-0.051c-0.573,-0.142 -0.897,-0.555 -1.283,-0.746c-0.376,-0.179 -0.448,-0.104 -1.049,-0.279c-0.624,-0.172 -1.279,-0.504 -1.693,-0.59c-0.4,-0.076 0.296,1.135 0.628,2.259c0.331,1.131 -0.242,2.474 -0.494,3.329c-0.265,0.862 -0.965,2.81 -1.882,4.073c-0.914,1.259 -1.293,1.717 -2.443,2.786c-1.162,1.069 -2.207,1.059 -2.97,1.166c-0.775,0.114 -1.486,0.618 -2.534,1.218c-1.021,0.566 -2.424,1.318 -3.142,1.584c0.476,0.007 0.942,0.03 1.418,0.03c27.253,0 57.155,-15.937 70.247,-36.358c-14.982,-4.049 -27.901,-5.704 -39.018,-5.704c-1.683,0 -3.321,0.038 -4.925,0.11c-5.405,7.788 -11.782,14.059 -18.252,19.108Z" style="fill:#9ad4df;fill-rule:nonzero;" />
  <path d="M134.58,112.856c-0.011,-0.128 -0.796,-0.428 -1.456,-0.652c-0.268,0.186 -0.538,0.379 -0.81,0.562c1.283,0.045 2.277,0.263 2.266,0.09Z" style="fill:#9ad4df;fill-rule:nonzero;" />
  <path d="M126.668,98.54c0.332,0.555 1.232,1.014 1.828,1.459c0.594,0.438 1.635,1.658 2.452,2.494c0.821,0.838 1.659,2.103 2.059,2.517c0.379,0.421 1.397,1.176 1.931,1.621c0.524,0.442 2.035,1.507 2.559,1.956c0.086,0.072 0.197,0.121 0.308,0.172c6.47,-5.049 12.847,-11.32 18.252,-19.107c-12.33,0.565 -22.242,3.242 -30.116,6.846c0.216,0.831 0.504,1.666 0.727,2.042Z" style="fill:#76c1ac;fill-rule:nonzero;" />
  <path d="M117.242,102.492c0.196,1.179 -0.132,3.466 0.131,5.152c0.266,1.694 -0.003,2.529 0.521,4.009c0.104,0.31 0.369,0.99 0.434,1.413c0.231,1.362 0.711,2.432 0.749,3.069c0.048,0.856 0.728,1.173 0.728,1.173c0.613,-0.387 0.603,-0.614 1.472,-1.152c0.873,-0.542 1.959,-1.29 2.752,-1.621c1.045,-0.421 2.135,-0.762 3.514,-1.041c1.366,-0.277 3.163,-0.749 4.563,-0.738c0.073,0 0.138,0.01 0.207,0.01c0.273,-0.183 0.542,-0.376 0.811,-0.562c-0.255,-0.09 -0.497,-0.169 -0.659,-0.221c-0.597,-0.193 -3.542,-1.483 -4.225,-1.804c-0.693,-0.324 -3.059,-1.773 -3.942,-2.355c-0.889,-0.587 -3.659,-3.001 -3.659,-3.001c0,0 -1.034,-0.883 -1.269,-1.997c-0.141,-0.666 -0.431,-1.635 -0.655,-2.439c-0.528,0.328 -1.042,0.666 -1.546,1c0.011,0.491 0.039,0.881 0.073,1.105Z" style="fill:#76c1ac;fill-rule:nonzero;" />
</svg>
